<svg width="1024" height="1024" viewBox="0 0 1024 1024" fill="none" xmlns="http://www.w3.org/2000/svg">
  <!-- Background -->
  <rect width="1024" height="1024" rx="224" fill="#6366f1"/>

  <!-- K-means cluster visualization -->
  <!-- Cluster 1 - top left -->
  <g opacity="0.3">
    <circle cx="200" cy="200" r="14" fill="#ffffff"/>
    <circle cx="240" cy="160" r="10" fill="#ffffff"/>
    <circle cx="170" cy="250" r="12" fill="#ffffff"/>
    <circle cx="220" cy="250" r="9" fill="#ffffff"/>
    <circle cx="270" cy="210" r="15" fill="#ffffff"/>
    <circle cx="180" cy="180" r="10" fill="#ffffff"/>
    <circle cx="230" cy="230" r="13" fill="#ffffff"/>
    <line x1="200" y1="200" x2="240" y2="160" stroke="#ffffff" stroke-width="3"/>
    <line x1="200" y1="200" x2="170" y2="250" stroke="#ffffff" stroke-width="3"/>
    <line x1="200" y1="200" x2="220" y2="250" stroke="#ffffff" stroke-width="3"/>
    <line x1="200" y1="200" x2="270" y2="210" stroke="#ffffff" stroke-width="3"/>
  </g>

  <!-- Cluster 2 - bottom right -->
  <g opacity="0.35">
    <circle cx="840" cy="840" r="14" fill="#ffffff"/>
    <circle cx="880" cy="800" r="10" fill="#ffffff"/>
    <circle cx="810" cy="880" r="12" fill="#ffffff"/>
    <circle cx="850" cy="900" r="9" fill="#ffffff"/>
    <circle cx="910" cy="850" r="15" fill="#ffffff"/>
    <circle cx="820" cy="820" r="10" fill="#ffffff"/>
    <circle cx="870" cy="870" r="13" fill="#ffffff"/>
    <line x1="840" y1="840" x2="880" y2="800" stroke="#ffffff" stroke-width="3"/>
    <line x1="840" y1="840" x2="810" y2="880" stroke="#ffffff" stroke-width="3"/>
    <line x1="840" y1="840" x2="850" y2="900" stroke="#ffffff" stroke-width="3"/>
    <line x1="840" y1="840" x2="910" y2="850" stroke="#ffffff" stroke-width="3"/>
  </g>

  <!-- Neural network nodes -->
  <g opacity="0.5">
    <circle cx="90" cy="512" r="20" fill="#a5b4fc"/>
    <circle cx="90" cy="620" r="20" fill="#a5b4fc"/>
    <circle cx="90" cy="404" r="20" fill="#a5b4fc"/>
    <circle cx="210" cy="512" r="20" fill="#a5b4fc"/>
    <circle cx="210" cy="440" r="20" fill="#a5b4fc"/>
    <circle cx="210" cy="584" r="20" fill="#a5b4fc"/>
    <circle cx="330" cy="512" r="20" fill="#a5b4fc"/>

    <line x1="90" y1="512" x2="210" y2="512" stroke="#a5b4fc" stroke-width="4"/>
    <line x1="90" y1="512" x2="210" y2="440" stroke="#a5b4fc" stroke-width="4"/>
    <line x1="90" y1="512" x2="210" y2="584" stroke="#a5b4fc" stroke-width="4"/>
    <line x1="90" y1="620" x2="210" y2="584" stroke="#a5b4fc" stroke-width="4"/>
    <line x1="90" y1="404" x2="210" y2="440" stroke="#a5b4fc" stroke-width="4"/>
    <line x1="210" y1="512" x2="330" y2="512" stroke="#a5b4fc" stroke-width="4"/>
    <line x1="210" y1="440" x2="330" y2="512" stroke="#a5b4fc" stroke-width="4"/>
    <line x1="210" y1="584" x2="330" y2="512" stroke="#a5b4fc" stroke-width="4"/>
  </g>

  <!-- Matrix/grid pattern -->
  <g opacity="0.25">
    <rect x="730" y="90" width="45" height="45" rx="6" fill="#ffffff"/>
    <rect x="785" y="90" width="45" height="45" rx="6" fill="#ffffff"/>
    <rect x="840" y="90" width="45" height="45" rx="6" fill="#ffffff"/>
    <rect x="730" y="145" width="45" height="45" rx="6" fill="#ffffff"/>
    <rect x="785" y="145" width="45" height="45" rx="6" fill="#ffffff"/>
    <rect x="840" y="145" width="45" height="45" rx="6" fill="#ffffff"/>
  </g>

  <!-- Data points scatter -->
  <g opacity="0.3">
    <circle cx="420" cy="140" r="8" fill="#ffffff"/>
    <circle cx="450" cy="115" r="6" fill="#ffffff"/>
    <circle cx="390" cy="165" r="9" fill="#ffffff"/>
    <circle cx="480" cy="150" r="7" fill="#ffffff"/>
    <circle cx="620" cy="860" r="8" fill="#ffffff"/>
    <circle cx="650" cy="835" r="6" fill="#ffffff"/>
    <circle cx="590" cy="885" r="9" fill="#ffffff"/>
    <circle cx="680" cy="870" r="7" fill="#ffffff"/>
  </g>

  <!-- Decorative circles -->
  <circle cx="824" cy="200" r="80" fill="#a5b4fc" opacity="0.3"/>
  <circle cx="200" cy="824" r="130" fill="#c7d2fe" opacity="0.3"/>

  <!-- ML Brain picture -->
  <g transform="translate(750 120) scale(0.5)" opacity="0.5">
    <path d="M 69 54 L 58 68 L 56 91 L 36 109 L 33 123 L 37 139 L 26 157 L 31 181 L 45 192 L 40 217 L 46 230 L 70 244 L 72 255 L 85 269 L 97 273 L 115 270 L 137 276 L 153 269 L 162 256 L 163 223 L 180 226 L 178 243 L 188 253 L 199 252 L 206 244 L 201 227 L 187 224 L 181 215 L 162 214 L 163 196 L 212 197 L 223 210 L 222 225 L 213 234 L 213 244 L 223 253 L 235 251 L 240 246 L 241 234 L 232 225 L 229 205 L 217 191 L 162 188 L 163 174 L 214 174 L 236 198 L 254 200 L 263 209 L 279 203 L 280 188 L 266 180 L 252 191 L 240 191 L 216 166 L 162 165 L 163 139 L 217 139 L 240 114 L 252 114 L 261 124 L 269 125 L 281 115 L 279 102 L 263 96 L 252 107 L 236 107 L 216 130 L 162 130 L 163 116 L 215 116 L 231 97 L 232 80 L 241 71 L 239 58 L 230 52 L 215 58 L 213 71 L 222 80 L 223 95 L 211 109 L 162 108 L 163 90 L 181 90 L 188 81 L 205 74 L 207 65 L 200 54 L 189 52 L 180 58 L 181 78 L 177 83 L 162 82 L 162 51 L 151 36 L 139 30 L 118 31 L 99 49 L 82 48 Z M 129 36 L 144 40 L 155 53 L 155 83 L 152 104 L 143 102 L 131 108 L 134 113 L 148 110 L 154 114 L 153 150 L 139 149 L 132 153 L 133 158 L 136 159 L 148 156 L 154 160 L 154 255 L 147 264 L 139 268 L 127 268 L 121 265 L 128 253 L 128 244 L 125 237 L 119 237 L 118 239 L 121 249 L 114 261 L 105 265 L 95 265 L 85 260 L 78 250 L 78 242 L 92 236 L 98 229 L 98 223 L 93 222 L 87 230 L 74 236 L 58 231 L 50 222 L 47 213 L 48 202 L 55 188 L 44 183 L 37 176 L 33 166 L 37 150 L 46 142 L 57 141 L 67 149 L 71 147 L 71 143 L 64 136 L 55 133 L 43 134 L 41 129 L 42 113 L 55 99 L 60 98 L 66 104 L 72 106 L 81 105 L 84 102 L 81 97 L 71 98 L 65 91 L 63 79 L 68 66 L 77 58 L 86 55 L 104 58 L 110 62 L 114 69 L 115 83 L 121 82 L 122 70 L 120 63 L 114 55 L 107 51 L 114 42 Z M 224 232 L 230 232 L 233 235 L 234 237 L 234 241 L 230 245 L 228 246 L 226 246 L 222 244 L 221 243 L 220 241 L 220 236 Z M 189 232 L 195 232 L 199 236 L 199 241 L 198 243 L 197 244 L 193 246 L 191 246 L 189 245 L 185 241 L 185 237 L 186 235 Z M 264 188 L 269 188 L 271 189 L 273 191 L 274 193 L 274 196 L 273 198 L 270 201 L 268 202 L 265 202 L 263 201 L 261 199 L 260 197 L 260 192 Z M 265 103 L 269 103 L 274 108 L 274 112 L 273 114 L 271 116 L 269 117 L 264 117 L 260 113 L 260 108 L 261 106 L 263 104 Z M 226 59 L 228 59 L 230 60 L 234 64 L 234 68 L 233 70 L 230 73 L 224 73 L 220 69 L 220 64 L 224 60 Z M 191 59 L 193 59 L 195 60 L 199 64 L 199 69 L 195 73 L 189 73 L 186 70 L 185 68 L 185 65 L 186 63 L 189 60 Z M 106 172 L 106 177 L 107 180 L 109 184 L 111 187 L 113 189 L 116 191 L 120 193 L 123 194 L 131 194 L 133 193 L 134 191 L 134 189 L 132 187 L 126 187 L 122 186 L 119 184 L 116 181 L 114 178 L 113 175 L 113 172 L 111 170 L 108 170 Z M 75 171 L 74 172 L 73 174 L 73 180 L 74 184 L 77 190 L 82 195 L 88 198 L 94 197 L 94 192 L 91 191 L 87 189 L 83 185 L 81 181 L 81 173 L 79 171 L 77 170 Z M 85 123 L 84 128 L 86 130 L 89 130 L 95 127 L 99 127 L 102 128 L 104 129 L 110 135 L 114 135 L 116 133 L 116 131 L 115 129 L 109 123 L 105 121 L 102 120 L 92 120 L 89 121 Z" fill="#FFF" fill-rule="evenodd"/>
  </g>

  <!-- ML setiings -->
  <g transform="translate(105 720) scale(0.8)" opacity="0.5">
    <!-- axes -->
    <path d="M34 210V38" stroke="#282C3D" stroke-width="8" stroke-linecap="round" stroke-linejoin="round"/>
    <path d="M20 54L34 38L48 54" stroke="#282C3D" stroke-width="8" stroke-linecap="round" stroke-linejoin="round"/>

    <path d="M34 210H218" stroke="#282C3D" stroke-width="8" stroke-linecap="round" stroke-linejoin="round"/>
    <path d="M202 196L218 210L202 224" stroke="#282C3D" stroke-width="8" stroke-linecap="round" stroke-linejoin="round"/>

    <!-- diagonal -->
    <path d="M36 208L186 58" stroke="#282C3D" stroke-width="8" stroke-linecap="round" stroke-linejoin="round"/>

    <!-- yellow points -->
    <g>
      <circle cx="80" cy="76" r="16" fill="#282C3D"/>
      <circle cx="80" cy="76" r="8" fill="#FBCE27"/>

      <circle cx="120" cy="88" r="16" fill="#282C3D"/>
      <circle cx="120" cy="88" r="8" fill="#FBCE27"/>

      <circle cx="140" cy="48" r="16" fill="#282C3D"/>
      <circle cx="140" cy="48" r="8" fill="#FBCE27"/>

      <circle cx="72" cy="140" r="16" fill="#282C3D"/>
      <circle cx="72" cy="140" r="8" fill="#FBCE27"/>
    </g>

    <!-- pink points -->
    <g>
      <rect x="154" y="118" width="28" height="28" rx="6" fill="#282C3D"/>
      <rect x="161" y="125" width="14" height="14" rx="2" fill="#FE5774"/>

      <rect x="102" y="166" width="28" height="28" rx="6" fill="#282C3D"/>
      <rect x="109" y="173" width="14" height="14" rx="2" fill="#FE5774"/>

      <rect x="152" y="162" width="28" height="28" rx="6" fill="#282C3D"/>
      <rect x="159" y="169" width="14" height="14" rx="2" fill="#FE5774"/>

      <rect x="194" y="130" width="28" height="28" rx="6" fill="#282C3D"/>
      <rect x="201" y="137" width="14" height="14" rx="2" fill="#FE5774"/>
    </g>
  </g>

  <!-- Main lottery balls -->
  <!-- Ball 1 -->
  <circle cx="340" cy="420" r="120" fill="#ffffff"/>
  <circle cx="340" cy="420" r="110" fill="#f8fafc" stroke="#e2e8f0" stroke-width="4"/>
  <text x="340" y="460" font-family="Arial, sans-serif" font-size="80" font-weight="bold" fill="#6366f1" text-anchor="middle">7</text>

  <!-- Ball 2 -->
  <circle cx="512" cy="340" r="120" fill="#ffffff"/>
  <circle cx="512" cy="340" r="110" fill="#f8fafc" stroke="#e2e8f0" stroke-width="4"/>
  <text x="512" y="370" font-family="Arial, sans-serif" font-size="80" font-weight="bold" fill="#6366f1" text-anchor="middle">21</text>

  <!-- Ball 3 -->
  <circle cx="684" cy="420" r="120" fill="#ffffff"/>
  <circle cx="684" cy="420" r="110" fill="#f8fafc" stroke="#e2e8f0" stroke-width="4"/>
  <text x="684" y="450" font-family="Arial, sans-serif" font-size="80" font-weight="bold" fill="#6366f1" text-anchor="middle">18</text>

  <!-- Ball 4 -->
  <circle cx="400" cy="580" r="120" fill="#ffffff"/>
  <circle cx="400" cy="580" r="110" fill="#f8fafc" stroke="#e2e8f0" stroke-width="4"/>
  <text x="390" y="610" font-family="Arial, sans-serif" font-size="80" font-weight="bold" fill="#6366f1" text-anchor="middle">15</text>

  <!-- Ball 5 -->
  <circle cx="624" cy="580" r="120" fill="#ffffff"/>
  <circle cx="624" cy="580" r="110" fill="#f8fafc" stroke="#e2e8f0" stroke-width="4"/>
  <text x="624" y="610" font-family="Arial, sans-serif" font-size="80" font-weight="bold" fill="#6366f1" text-anchor="middle">33</text>

  <!-- Star accent -->
  <path d="M850 280 L860 310 L890 310 L865 330 L875 360 L850 340 L825 360 L835 330 L810 310 L840 310 Z" fill="#fbbf24" stroke="#f59e0b" stroke-width="2"/>

  <!-- Shine effects on balls -->
  <ellipse cx="300" cy="380" rx="30" ry="20" fill="white" opacity="0.6"/>
  <ellipse cx="472" cy="300" rx="30" ry="20" fill="white" opacity="0.6"/>
  <ellipse cx="644" cy="380" rx="30" ry="20" fill="white" opacity="0.6"/>
  <ellipse cx="360" cy="540" rx="30" ry="20" fill="white" opacity="0.6"/>
  <ellipse cx="584" cy="540" rx="30" ry="20" fill="white" opacity="0.6"/>
</svg>
